# xmcd
#
# Track frame offsets: 
#        150
#        19541
#        28805
#        47928
#        61425
#        80744
#        99006
#        113009
#        126442
#        140637
#        153969
#        165732
#        170927
#        176027
#        188565
#        200581
#        219752
#        234535
#        252235
#        263338
#        272861
#        286592
#        306406
#        314066
#
# Disc length: 4342 seconds
#
# Revision: 0
# Processed by: cddbd v1.5.2PL0 Copyright (c) Steve Scherf et al.
# Submitted via: ExactAudioCopy v0.99pb5
#
DISCID=5b10f418
DTITLE=Cream  - Secret History - Disc 2 (MS1)  
DYEAR=1900
DGENRE=
TTITLE0=Sleepy Time Time
TTITLE1=Sweet Wine
TTITLE2=I'm So Glad
TTITLE3=Wrapping Paper
TTITLE4=Four Until Late
TTITLE5=Cat's Squirrel
TTITLE6=White Room (without waa-waa solo)
TTITLE7=Sing Along
TTITLE8=Anyone For Tennis
TTITLE9=Pressed rat and Warthog
TTITLE10=Falstaff Beer 1
TTITLE11=Falstaff Beer 2
TTITLE12=Piano and Acoustic Guitar Jam
TTITLE13=N.S.U.
TTITLE14=Cat's Squirrel
TTITLE15=Train Time
TTITLE16=Lawdy Mama
TTITLE17=I'm So Glad
TTITLE18=Four Four Until Late
TTITLE19=I Feel Free
TTITLE20=N.S.U.
TTITLE21=Strange Brew
TTITLE22=Tales Of Brave Ulysses
TTITLE23=We're Going Wrong
EXTD=
EXTT0=
EXTT1=
EXTT2=
EXTT3=
EXTT4=
EXTT5=
EXTT6=
EXTT7=
EXTT8=
EXTT9=
EXTT10=
EXTT11=
EXTT12=
EXTT13=
EXTT14=
EXTT15=
EXTT16=
EXTT17=
EXTT18=
EXTT19=
EXTT20=
EXTT21=
EXTT22=
EXTT23=
PLAYORDER=
